<svg width="21" height="21" viewBox="0 0 21 21" fill="none" xmlns="http://www.w3.org/2000/svg">
<path d="M20.1589 7.1589C21.4089 5.9089 20.8389 4.4489 20.1589 3.7389L17.1589 0.738904C15.8989 -0.511096 14.4489 0.0589036 13.7389 0.738904L12.0389 2.4489H9.4489C7.5489 2.4489 6.4489 3.4489 5.8889 4.5989L1.4489 9.0389V13.0389L0.738904 13.7389C-0.511096 14.9989 0.0589036 16.4489 0.738904 17.1589L3.7389 20.1589C4.2789 20.6989 4.8589 20.8989 5.4089 20.8989C6.1189 20.8989 6.7689 20.5489 7.1589 20.1589L9.8589 17.4489H13.4489C15.1489 17.4489 16.0089 16.3889 16.3189 15.3489C17.4489 15.0489 18.0689 14.1889 18.3189 13.3489C19.8689 12.9489 20.4489 11.4789 20.4489 10.4489V7.4489H19.8589L20.1589 7.1589ZM18.4489 10.4489C18.4489 10.8989 18.2589 11.4489 17.4489 11.4489H16.4489V12.4489C16.4489 12.8989 16.2589 13.4489 15.4489 13.4489H14.4489V14.4489C14.4489 14.8989 14.2589 15.4489 13.4489 15.4489H9.0389L5.7589 18.7289C5.4489 19.0189 5.2689 18.8489 5.1589 18.7389L2.1689 15.7589C1.8789 15.4489 2.0489 15.2689 2.1589 15.1589L3.4489 13.8589V9.8589L5.4489 7.8589V9.4489C5.4489 10.6589 6.2489 12.4489 8.4489 12.4489C10.6489 12.4489 11.4489 10.6589 11.4489 9.4489H18.4489V10.4489ZM18.7389 5.7389L17.0389 7.4489H9.4489V9.4489C9.4489 9.8989 9.2589 10.4489 8.4489 10.4489C7.6389 10.4489 7.4489 9.8989 7.4489 9.4489V6.4489C7.4489 5.9889 7.6189 4.4489 9.4489 4.4489H12.8589L15.1389 2.1689C15.4489 1.8789 15.6289 2.0489 15.7389 2.1589L18.7289 5.1389C19.0189 5.4489 18.8489 5.6289 18.7389 5.7389Z" fill="#0A272A"/>
</svg>
